<mxfile host="65bd71144e">
    <diagram id="OYfk0WZI_6KF0y1g5S_y" name="Page-1">
        <mxGraphModel dx="920" dy="507" grid="1" gridSize="10" guides="1" tooltips="1" connect="1" arrows="1" fold="1" page="1" pageScale="1" pageWidth="1654" pageHeight="1169" math="0" shadow="0">
            <root>
                <mxCell id="0"/>
                <mxCell id="1" parent="0"/>
                <mxCell id="ihmi3CmrBaso4x8rtIR5-3" value="OP: identificaVoluntario&lt;br&gt;Resposta: N/A&lt;br&gt;Pós-condições: Voluntário autenticado" style="text;html=1;align=left;verticalAlign=middle;resizable=0;points=[];autosize=1;strokeColor=none;fillColor=none;" parent="1" vertex="1">
                    <mxGeometry x="60" y="40" width="220" height="50" as="geometry"/>
                </mxCell>
                <mxCell id="ihmi3CmrBaso4x8rtIR5-4" value="identificaVoluntario(contacto)" style="text;html=1;align=center;verticalAlign=middle;resizable=0;points=[];autosize=1;strokeColor=none;fillColor=none;" parent="1" vertex="1">
                    <mxGeometry x="50" y="185" width="170" height="20" as="geometry"/>
                </mxCell>
                <mxCell id="ihmi3CmrBaso4x8rtIR5-5" value="" style="endArrow=none;html=1;endFill=0;" parent="1" edge="1">
                    <mxGeometry width="50" height="50" relative="1" as="geometry">
                        <mxPoint x="60" y="215" as="sourcePoint"/>
                        <mxPoint x="220" y="215" as="targetPoint"/>
                        <Array as="points">
                            <mxPoint x="150" y="215"/>
                        </Array>
                    </mxGeometry>
                </mxCell>
                <mxCell id="ihmi3CmrBaso4x8rtIR5-6" value="" style="rounded=0;whiteSpace=wrap;html=1;" parent="1" vertex="1">
                    <mxGeometry x="220" y="175" width="140" height="80" as="geometry"/>
                </mxCell>
                <mxCell id="ihmi3CmrBaso4x8rtIR5-7" value=": Resgista Ajuda&lt;br&gt;Handler" style="text;html=1;align=center;verticalAlign=middle;resizable=0;points=[];autosize=1;strokeColor=none;fillColor=none;" parent="1" vertex="1">
                    <mxGeometry x="240" y="200" width="100" height="30" as="geometry"/>
                </mxCell>
                <mxCell id="ihmi3CmrBaso4x8rtIR5-8" value="1. v&amp;nbsp; = getVoluntario (contacto)" style="text;html=1;align=center;verticalAlign=middle;resizable=0;points=[];autosize=1;strokeColor=none;fillColor=none;" parent="1" vertex="1">
                    <mxGeometry x="365" y="185" width="180" height="20" as="geometry"/>
                </mxCell>
                <mxCell id="ihmi3CmrBaso4x8rtIR5-9" value="" style="endArrow=none;html=1;exitX=1;exitY=0.5;exitDx=0;exitDy=0;endFill=0;" parent="1" source="ihmi3CmrBaso4x8rtIR5-6" target="ihmi3CmrBaso4x8rtIR5-11" edge="1">
                    <mxGeometry width="50" height="50" relative="1" as="geometry">
                        <mxPoint x="400" y="255" as="sourcePoint"/>
                        <mxPoint x="550" y="215" as="targetPoint"/>
                    </mxGeometry>
                </mxCell>
                <mxCell id="ihmi3CmrBaso4x8rtIR5-11" value=":Catálogo Voluntário" style="rounded=0;whiteSpace=wrap;html=1;" parent="1" vertex="1">
                    <mxGeometry x="545" y="185" width="120" height="60" as="geometry"/>
                </mxCell>
                <mxCell id="ihmi3CmrBaso4x8rtIR5-14" value="" style="endArrow=none;html=1;exitX=0;exitY=0.5;exitDx=0;exitDy=0;" parent="1" source="ihmi3CmrBaso4x8rtIR5-15" edge="1">
                    <mxGeometry width="50" height="50" relative="1" as="geometry">
                        <mxPoint x="815" y="214.58" as="sourcePoint"/>
                        <mxPoint x="665" y="214.58" as="targetPoint"/>
                    </mxGeometry>
                </mxCell>
                <mxCell id="ihmi3CmrBaso4x8rtIR5-15" value="mapVol: Map&amp;lt;contacto,voluntario&amp;gt;" style="rounded=0;whiteSpace=wrap;html=1;" parent="1" vertex="1">
                    <mxGeometry x="836" y="180" width="145" height="70" as="geometry"/>
                </mxCell>
                <mxCell id="ihmi3CmrBaso4x8rtIR5-16" value="1.1 v = getVoluntario(contacto)" style="text;html=1;align=center;verticalAlign=middle;resizable=0;points=[];autosize=1;strokeColor=none;fillColor=none;" parent="1" vertex="1">
                    <mxGeometry x="657" y="185" width="180" height="20" as="geometry"/>
                </mxCell>
                <mxCell id="ihmi3CmrBaso4x8rtIR5-17" value="" style="endArrow=none;dashed=1;html=1;dashPattern=1 3;strokeWidth=2;" parent="1" edge="1">
                    <mxGeometry width="50" height="50" relative="1" as="geometry">
                        <mxPoint x="90" y="185" as="sourcePoint"/>
                        <mxPoint x="190" y="135" as="targetPoint"/>
                    </mxGeometry>
                </mxCell>
                <mxCell id="ihmi3CmrBaso4x8rtIR5-18" value="" style="endArrow=none;dashed=1;html=1;dashPattern=1 3;strokeWidth=2;exitX=0.5;exitY=0;exitDx=0;exitDy=0;" parent="1" source="ihmi3CmrBaso4x8rtIR5-6" edge="1">
                    <mxGeometry width="50" height="50" relative="1" as="geometry">
                        <mxPoint x="420" y="315" as="sourcePoint"/>
                        <mxPoint x="190" y="135" as="targetPoint"/>
                    </mxGeometry>
                </mxCell>
                <mxCell id="ihmi3CmrBaso4x8rtIR5-19" value="Controller" style="text;html=1;align=center;verticalAlign=middle;resizable=0;points=[];autosize=1;strokeColor=none;fillColor=none;" parent="1" vertex="1">
                    <mxGeometry x="160" y="105" width="70" height="20" as="geometry"/>
                </mxCell>
                <mxCell id="ihmi3CmrBaso4x8rtIR5-20" value="" style="endArrow=none;dashed=1;html=1;dashPattern=1 3;strokeWidth=2;exitX=0.5;exitY=0;exitDx=0;exitDy=0;" parent="1" source="ihmi3CmrBaso4x8rtIR5-11" edge="1">
                    <mxGeometry width="50" height="50" relative="1" as="geometry">
                        <mxPoint x="470" y="215" as="sourcePoint"/>
                        <mxPoint x="540" y="145" as="targetPoint"/>
                    </mxGeometry>
                </mxCell>
                <mxCell id="ihmi3CmrBaso4x8rtIR5-21" value="expert" style="text;html=1;align=center;verticalAlign=middle;resizable=0;points=[];autosize=1;strokeColor=none;fillColor=none;" parent="1" vertex="1">
                    <mxGeometry x="505" y="125" width="50" height="20" as="geometry"/>
                </mxCell>
                <mxCell id="ihmi3CmrBaso4x8rtIR5-22" value="OP: indicaNumPessoas&lt;br&gt;Resposta: ListaRegiões&lt;br&gt;Pós-condições:&amp;nbsp;v associado a a:Alojamento" style="text;html=1;align=left;verticalAlign=middle;resizable=0;points=[];autosize=1;strokeColor=none;fillColor=none;" parent="1" vertex="1">
                    <mxGeometry x="60" y="290" width="250" height="50" as="geometry"/>
                </mxCell>
                <mxCell id="ihmi3CmrBaso4x8rtIR5-24" value="lr = indicaNumPessoas(num)" style="text;html=1;align=center;verticalAlign=middle;resizable=0;points=[];autosize=1;strokeColor=none;fillColor=none;" parent="1" vertex="1">
                    <mxGeometry x="50" y="420" width="170" height="20" as="geometry"/>
                </mxCell>
                <mxCell id="ihmi3CmrBaso4x8rtIR5-25" value="" style="endArrow=none;html=1;" parent="1" target="ihmi3CmrBaso4x8rtIR5-26" edge="1">
                    <mxGeometry width="50" height="50" relative="1" as="geometry">
                        <mxPoint x="60" y="450" as="sourcePoint"/>
                        <mxPoint x="230" y="450" as="targetPoint"/>
                    </mxGeometry>
                </mxCell>
                <mxCell id="ihmi3CmrBaso4x8rtIR5-26" value=": Regista Ajuda&lt;br&gt;Handler" style="rounded=0;whiteSpace=wrap;html=1;" parent="1" vertex="1">
                    <mxGeometry x="220" y="420" width="120" height="60" as="geometry"/>
                </mxCell>
                <mxCell id="ihmi3CmrBaso4x8rtIR5-27" value="" style="endArrow=none;dashed=1;html=1;dashPattern=1 3;strokeWidth=2;" parent="1" edge="1">
                    <mxGeometry width="50" height="50" relative="1" as="geometry">
                        <mxPoint x="120" y="420" as="sourcePoint"/>
                        <mxPoint x="180" y="390" as="targetPoint"/>
                    </mxGeometry>
                </mxCell>
                <mxCell id="ihmi3CmrBaso4x8rtIR5-34" value="" style="endArrow=none;dashed=1;html=1;dashPattern=1 3;strokeWidth=2;entryX=0.5;entryY=0;entryDx=0;entryDy=0;" parent="1" target="ihmi3CmrBaso4x8rtIR5-26" edge="1">
                    <mxGeometry width="50" height="50" relative="1" as="geometry">
                        <mxPoint x="180" y="390" as="sourcePoint"/>
                        <mxPoint x="240" y="360" as="targetPoint"/>
                    </mxGeometry>
                </mxCell>
                <mxCell id="ihmi3CmrBaso4x8rtIR5-35" value="Controller" style="text;html=1;align=center;verticalAlign=middle;resizable=0;points=[];autosize=1;strokeColor=none;fillColor=none;" parent="1" vertex="1">
                    <mxGeometry x="150" y="370" width="70" height="20" as="geometry"/>
                </mxCell>
                <mxCell id="3" value="" style="endArrow=none;html=1;entryX=0;entryY=0.5;entryDx=0;entryDy=0;" parent="1" target="4" edge="1">
                    <mxGeometry width="50" height="50" relative="1" as="geometry">
                        <mxPoint x="340" y="449.29" as="sourcePoint"/>
                        <mxPoint x="500" y="449.29" as="targetPoint"/>
                    </mxGeometry>
                </mxCell>
                <mxCell id="4" value=":Catálogo Ajuda" style="rounded=0;whiteSpace=wrap;html=1;" parent="1" vertex="1">
                    <mxGeometry x="490" y="420" width="120" height="60" as="geometry"/>
                </mxCell>
                <mxCell id="5" value="1.&amp;nbsp; createAlojamento(num)" style="text;html=1;align=center;verticalAlign=middle;resizable=0;points=[];autosize=1;strokeColor=none;fillColor=none;" parent="1" vertex="1">
                    <mxGeometry x="335" y="430" width="160" height="20" as="geometry"/>
                </mxCell>
                <mxCell id="ihmi3CmrBaso4x8rtIR5-38" value="codi = indicaRegiao(regiao)" style="text;html=1;align=center;verticalAlign=middle;resizable=0;points=[];autosize=1;strokeColor=none;fillColor=none;" parent="1" vertex="1">
                    <mxGeometry x="15" y="755" width="160" height="20" as="geometry"/>
                </mxCell>
                <mxCell id="ihmi3CmrBaso4x8rtIR5-39" value="" style="endArrow=none;html=1;" parent="1" target="ihmi3CmrBaso4x8rtIR5-40" edge="1">
                    <mxGeometry width="50" height="50" relative="1" as="geometry">
                        <mxPoint x="20" y="784.9999999999999" as="sourcePoint"/>
                        <mxPoint x="190" y="785" as="targetPoint"/>
                    </mxGeometry>
                </mxCell>
                <mxCell id="ihmi3CmrBaso4x8rtIR5-40" value=":Regista Ajuda&lt;br&gt;Handler" style="rounded=0;whiteSpace=wrap;html=1;" parent="1" vertex="1">
                    <mxGeometry x="180" y="755" width="120" height="60" as="geometry"/>
                </mxCell>
                <mxCell id="ihmi3CmrBaso4x8rtIR5-41" value="" style="endArrow=none;dashed=1;html=1;dashPattern=1 3;strokeWidth=2;" parent="1" edge="1">
                    <mxGeometry width="50" height="50" relative="1" as="geometry">
                        <mxPoint x="80" y="755" as="sourcePoint"/>
                        <mxPoint x="140" y="725" as="targetPoint"/>
                    </mxGeometry>
                </mxCell>
                <mxCell id="ihmi3CmrBaso4x8rtIR5-42" value="" style="endArrow=none;dashed=1;html=1;dashPattern=1 3;strokeWidth=2;entryX=0.5;entryY=0;entryDx=0;entryDy=0;" parent="1" target="ihmi3CmrBaso4x8rtIR5-40" edge="1">
                    <mxGeometry width="50" height="50" relative="1" as="geometry">
                        <mxPoint x="140" y="725" as="sourcePoint"/>
                        <mxPoint x="200" y="695" as="targetPoint"/>
                    </mxGeometry>
                </mxCell>
                <mxCell id="ihmi3CmrBaso4x8rtIR5-43" value="Controller" style="text;html=1;align=center;verticalAlign=middle;resizable=0;points=[];autosize=1;strokeColor=none;fillColor=none;" parent="1" vertex="1">
                    <mxGeometry x="110" y="705" width="70" height="20" as="geometry"/>
                </mxCell>
                <mxCell id="ihmi3CmrBaso4x8rtIR5-44" value="OP: indicaRegiao&lt;br&gt;Resposta: Codigo&lt;br&gt;Pós-condições: alojamento associado a regiao." style="text;html=1;align=left;verticalAlign=middle;resizable=0;points=[];autosize=1;strokeColor=none;fillColor=none;" parent="1" vertex="1">
                    <mxGeometry x="40" y="630" width="270" height="50" as="geometry"/>
                </mxCell>
                <mxCell id="6" value="" style="endArrow=none;html=1;exitX=0.579;exitY=1.032;exitDx=0;exitDy=0;exitPerimeter=0;" edge="1" parent="1" source="ihmi3CmrBaso4x8rtIR5-26">
                    <mxGeometry width="50" height="50" relative="1" as="geometry">
                        <mxPoint x="540" y="550" as="sourcePoint"/>
                        <mxPoint x="450" y="590" as="targetPoint"/>
                        <Array as="points">
                            <mxPoint x="290" y="590"/>
                        </Array>
                    </mxGeometry>
                </mxCell>
                <mxCell id="8" value="2. lr = getListaRegioes()" style="text;html=1;align=center;verticalAlign=middle;resizable=0;points=[];autosize=1;strokeColor=none;fillColor=none;" vertex="1" parent="1">
                    <mxGeometry x="300" y="520" width="140" height="20" as="geometry"/>
                </mxCell>
                <mxCell id="9" value=":Catálogo Regiões" style="rounded=0;whiteSpace=wrap;html=1;" vertex="1" parent="1">
                    <mxGeometry x="450" y="555" width="120" height="60" as="geometry"/>
                </mxCell>
                <mxCell id="11" value="" style="endArrow=none;html=1;exitX=1;exitY=0.5;exitDx=0;exitDy=0;" edge="1" parent="1" source="ihmi3CmrBaso4x8rtIR5-40">
                    <mxGeometry width="50" height="50" relative="1" as="geometry">
                        <mxPoint x="510" y="720" as="sourcePoint"/>
                        <mxPoint x="460" y="785" as="targetPoint"/>
                    </mxGeometry>
                </mxCell>
                <mxCell id="12" value="" style="endArrow=none;dashed=1;html=1;dashPattern=1 3;strokeWidth=2;" edge="1" parent="1">
                    <mxGeometry width="50" height="50" relative="1" as="geometry">
                        <mxPoint x="440" y="420" as="sourcePoint"/>
                        <mxPoint x="500" y="380" as="targetPoint"/>
                    </mxGeometry>
                </mxCell>
                <mxCell id="13" value="" style="endArrow=none;dashed=1;html=1;dashPattern=1 3;strokeWidth=2;exitX=0.5;exitY=0;exitDx=0;exitDy=0;" edge="1" parent="1" source="4">
                    <mxGeometry width="50" height="50" relative="1" as="geometry">
                        <mxPoint x="520" y="390" as="sourcePoint"/>
                        <mxPoint x="500" y="380" as="targetPoint"/>
                    </mxGeometry>
                </mxCell>
                <mxCell id="14" value="create" style="text;html=1;align=center;verticalAlign=middle;resizable=0;points=[];autosize=1;strokeColor=none;fillColor=none;" vertex="1" parent="1">
                    <mxGeometry x="475" y="360" width="50" height="20" as="geometry"/>
                </mxCell>
                <mxCell id="15" value="" style="endArrow=none;dashed=1;html=1;dashPattern=1 3;strokeWidth=2;" edge="1" parent="1">
                    <mxGeometry width="50" height="50" relative="1" as="geometry">
                        <mxPoint x="480" y="550" as="sourcePoint"/>
                        <mxPoint x="550" y="530" as="targetPoint"/>
                    </mxGeometry>
                </mxCell>
                <mxCell id="17" value="expert" style="text;html=1;align=center;verticalAlign=middle;resizable=0;points=[];autosize=1;strokeColor=none;fillColor=none;" vertex="1" parent="1">
                    <mxGeometry x="545" y="520" width="50" height="20" as="geometry"/>
                </mxCell>
                <mxCell id="19" value="1. r = getRegiao(regiao)" style="text;html=1;align=center;verticalAlign=middle;resizable=0;points=[];autosize=1;strokeColor=none;fillColor=none;" vertex="1" parent="1">
                    <mxGeometry x="310" y="760" width="140" height="20" as="geometry"/>
                </mxCell>
                <mxCell id="21" value=":Catálogo Regiões" style="rounded=0;whiteSpace=wrap;html=1;" vertex="1" parent="1">
                    <mxGeometry x="455" y="760" width="120" height="60" as="geometry"/>
                </mxCell>
                <mxCell id="22" value="" style="endArrow=none;html=1;exitX=1;exitY=0.5;exitDx=0;exitDy=0;" edge="1" parent="1">
                    <mxGeometry width="50" height="50" relative="1" as="geometry">
                        <mxPoint x="575" y="784.58" as="sourcePoint"/>
                        <mxPoint x="690" y="785" as="targetPoint"/>
                    </mxGeometry>
                </mxCell>
                <mxCell id="23" value="1.1 get(regiao)" style="text;html=1;align=center;verticalAlign=middle;resizable=0;points=[];autosize=1;strokeColor=none;fillColor=none;" vertex="1" parent="1">
                    <mxGeometry x="590" y="760" width="90" height="20" as="geometry"/>
                </mxCell>
                <mxCell id="24" value="listRegioes: List&amp;lt;Regiao&amp;gt;" style="rounded=0;whiteSpace=wrap;html=1;" vertex="1" parent="1">
                    <mxGeometry x="690" y="760" width="120" height="60" as="geometry"/>
                </mxCell>
                <mxCell id="26" value="" style="endArrow=none;html=1;entryX=0;entryY=0.5;entryDx=0;entryDy=0;" edge="1" parent="1">
                    <mxGeometry width="50" height="50" relative="1" as="geometry">
                        <mxPoint x="610" y="449.58" as="sourcePoint"/>
                        <mxPoint x="760" y="450.29" as="targetPoint"/>
                    </mxGeometry>
                </mxCell>
                <mxCell id="27" value="listAloj: List&amp;lt;Alojamento&amp;gt;" style="rounded=0;whiteSpace=wrap;html=1;" vertex="1" parent="1">
                    <mxGeometry x="760" y="420" width="120" height="60" as="geometry"/>
                </mxCell>
                <mxCell id="28" value="1.1 create(num)" style="text;html=1;align=center;verticalAlign=middle;resizable=0;points=[];autosize=1;strokeColor=none;fillColor=none;" vertex="1" parent="1">
                    <mxGeometry x="630" y="430" width="100" height="20" as="geometry"/>
                </mxCell>
                <mxCell id="29" value="" style="endArrow=none;dashed=1;html=1;dashPattern=1 3;strokeWidth=2;" edge="1" parent="1">
                    <mxGeometry width="50" height="50" relative="1" as="geometry">
                        <mxPoint x="485" y="755" as="sourcePoint"/>
                        <mxPoint x="555" y="735" as="targetPoint"/>
                    </mxGeometry>
                </mxCell>
                <mxCell id="30" value="expert" style="text;html=1;align=center;verticalAlign=middle;resizable=0;points=[];autosize=1;strokeColor=none;fillColor=none;" vertex="1" parent="1">
                    <mxGeometry x="550" y="725" width="50" height="20" as="geometry"/>
                </mxCell>
                <mxCell id="31" value="" style="endArrow=none;html=1;exitX=0.5;exitY=1;exitDx=0;exitDy=0;" edge="1" parent="1" source="ihmi3CmrBaso4x8rtIR5-40">
                    <mxGeometry width="50" height="50" relative="1" as="geometry">
                        <mxPoint x="310" y="795" as="sourcePoint"/>
                        <mxPoint x="240" y="880" as="targetPoint"/>
                    </mxGeometry>
                </mxCell>
                <mxCell id="32" value="a:Alojamento" style="rounded=0;whiteSpace=wrap;html=1;" vertex="1" parent="1">
                    <mxGeometry x="180" y="880" width="120" height="60" as="geometry"/>
                </mxCell>
                <mxCell id="34" value="2. setRegiao(regiao)" style="text;html=1;align=center;verticalAlign=middle;resizable=0;points=[];autosize=1;strokeColor=none;fillColor=none;" vertex="1" parent="1">
                    <mxGeometry x="240" y="830" width="120" height="20" as="geometry"/>
                </mxCell>
                <mxCell id="35" value="OP: indicaDescItem&lt;br&gt;Resposta: N/A&lt;br&gt;Pós-condições:&amp;nbsp;v associado a i:Item" style="text;html=1;align=left;verticalAlign=middle;resizable=0;points=[];autosize=1;strokeColor=none;fillColor=none;" vertex="1" parent="1">
                    <mxGeometry x="30" y="970" width="210" height="50" as="geometry"/>
                </mxCell>
                <mxCell id="36" value="lr =&amp;nbsp;indicaDescItem(desc)" style="text;html=1;align=center;verticalAlign=middle;resizable=0;points=[];autosize=1;strokeColor=none;fillColor=none;" vertex="1" parent="1">
                    <mxGeometry x="30" y="1100" width="150" height="20" as="geometry"/>
                </mxCell>
                <mxCell id="37" value="" style="endArrow=none;html=1;" edge="1" parent="1" target="38">
                    <mxGeometry width="50" height="50" relative="1" as="geometry">
                        <mxPoint x="30" y="1130" as="sourcePoint"/>
                        <mxPoint x="200" y="1130" as="targetPoint"/>
                    </mxGeometry>
                </mxCell>
                <mxCell id="38" value=": Regista Ajuda&lt;br&gt;Handler" style="rounded=0;whiteSpace=wrap;html=1;" vertex="1" parent="1">
                    <mxGeometry x="190" y="1100" width="120" height="60" as="geometry"/>
                </mxCell>
                <mxCell id="39" value="" style="endArrow=none;dashed=1;html=1;dashPattern=1 3;strokeWidth=2;" edge="1" parent="1">
                    <mxGeometry width="50" height="50" relative="1" as="geometry">
                        <mxPoint x="90" y="1100" as="sourcePoint"/>
                        <mxPoint x="150" y="1070" as="targetPoint"/>
                    </mxGeometry>
                </mxCell>
                <mxCell id="40" value="" style="endArrow=none;dashed=1;html=1;dashPattern=1 3;strokeWidth=2;entryX=0.5;entryY=0;entryDx=0;entryDy=0;" edge="1" parent="1" target="38">
                    <mxGeometry width="50" height="50" relative="1" as="geometry">
                        <mxPoint x="150" y="1070" as="sourcePoint"/>
                        <mxPoint x="210" y="1040" as="targetPoint"/>
                    </mxGeometry>
                </mxCell>
                <mxCell id="41" value="Controller" style="text;html=1;align=center;verticalAlign=middle;resizable=0;points=[];autosize=1;strokeColor=none;fillColor=none;" vertex="1" parent="1">
                    <mxGeometry x="120" y="1050" width="70" height="20" as="geometry"/>
                </mxCell>
                <mxCell id="42" value="" style="endArrow=none;html=1;entryX=0;entryY=0.5;entryDx=0;entryDy=0;" edge="1" parent="1" target="43">
                    <mxGeometry width="50" height="50" relative="1" as="geometry">
                        <mxPoint x="310" y="1129.29" as="sourcePoint"/>
                        <mxPoint x="470" y="1129.29" as="targetPoint"/>
                    </mxGeometry>
                </mxCell>
                <mxCell id="43" value=":Catálogo Ajuda" style="rounded=0;whiteSpace=wrap;html=1;" vertex="1" parent="1">
                    <mxGeometry x="460" y="1100" width="120" height="60" as="geometry"/>
                </mxCell>
                <mxCell id="44" value="1.&amp;nbsp; createItem(desc)" style="text;html=1;align=center;verticalAlign=middle;resizable=0;points=[];autosize=1;strokeColor=none;fillColor=none;" vertex="1" parent="1">
                    <mxGeometry x="325" y="1110" width="120" height="20" as="geometry"/>
                </mxCell>
                <mxCell id="48" value="" style="endArrow=none;dashed=1;html=1;dashPattern=1 3;strokeWidth=2;" edge="1" parent="1">
                    <mxGeometry width="50" height="50" relative="1" as="geometry">
                        <mxPoint x="410" y="1100" as="sourcePoint"/>
                        <mxPoint x="470" y="1060" as="targetPoint"/>
                    </mxGeometry>
                </mxCell>
                <mxCell id="49" value="" style="endArrow=none;dashed=1;html=1;dashPattern=1 3;strokeWidth=2;exitX=0.5;exitY=0;exitDx=0;exitDy=0;" edge="1" parent="1" source="43">
                    <mxGeometry width="50" height="50" relative="1" as="geometry">
                        <mxPoint x="490" y="1070" as="sourcePoint"/>
                        <mxPoint x="470" y="1060" as="targetPoint"/>
                    </mxGeometry>
                </mxCell>
                <mxCell id="50" value="create" style="text;html=1;align=center;verticalAlign=middle;resizable=0;points=[];autosize=1;strokeColor=none;fillColor=none;" vertex="1" parent="1">
                    <mxGeometry x="445" y="1040" width="50" height="20" as="geometry"/>
                </mxCell>
                <mxCell id="53" value="" style="endArrow=none;html=1;entryX=0;entryY=0.5;entryDx=0;entryDy=0;" edge="1" parent="1">
                    <mxGeometry width="50" height="50" relative="1" as="geometry">
                        <mxPoint x="580" y="1129.58" as="sourcePoint"/>
                        <mxPoint x="730.0000000000002" y="1130.29" as="targetPoint"/>
                    </mxGeometry>
                </mxCell>
                <mxCell id="54" value="listItem: List&amp;lt;Items&amp;gt;" style="rounded=0;whiteSpace=wrap;html=1;" vertex="1" parent="1">
                    <mxGeometry x="730" y="1100" width="120" height="60" as="geometry"/>
                </mxCell>
                <mxCell id="55" value="1.1 create(desc)" style="text;html=1;align=center;verticalAlign=middle;resizable=0;points=[];autosize=1;strokeColor=none;fillColor=none;" vertex="1" parent="1">
                    <mxGeometry x="600" y="1110" width="100" height="20" as="geometry"/>
                </mxCell>
                <mxCell id="56" value="" style="endArrow=none;html=1;entryX=0;entryY=0.5;entryDx=0;entryDy=0;" edge="1" parent="1" target="58">
                    <mxGeometry width="50" height="50" relative="1" as="geometry">
                        <mxPoint x="300" y="800" as="sourcePoint"/>
                        <mxPoint x="480" y="880" as="targetPoint"/>
                        <Array as="points">
                            <mxPoint x="380" y="800"/>
                            <mxPoint x="380" y="880"/>
                        </Array>
                    </mxGeometry>
                </mxCell>
                <mxCell id="57" value="3. cod = receiveCod()" style="text;html=1;align=center;verticalAlign=middle;resizable=0;points=[];autosize=1;strokeColor=none;fillColor=none;" vertex="1" parent="1">
                    <mxGeometry x="385" y="850" width="130" height="20" as="geometry"/>
                </mxCell>
                <mxCell id="58" value=":Sms" style="rounded=0;whiteSpace=wrap;html=1;" vertex="1" parent="1">
                    <mxGeometry x="515" y="850" width="120" height="60" as="geometry"/>
                </mxCell>
                <mxCell id="102" value="not sure sobre o ponto 3" style="ellipse;whiteSpace=wrap;html=1;" vertex="1" parent="1">
                    <mxGeometry x="650" y="880" width="120" height="60" as="geometry"/>
                </mxCell>
                <mxCell id="116" value="OP:&amp;nbsp;&lt;span style=&quot;text-align: center&quot;&gt;indicaCódigo&lt;/span&gt;&lt;br&gt;Resposta: N/A&lt;br&gt;Pós-condições:&amp;nbsp;&amp;nbsp;e retornado s.codigo = codigo. (sem certeza)" style="text;html=1;align=left;verticalAlign=middle;resizable=0;points=[];autosize=1;strokeColor=none;fillColor=none;" vertex="1" parent="1">
                    <mxGeometry x="40" y="1290" width="340" height="50" as="geometry"/>
                </mxCell>
                <mxCell id="117" value="lr =&amp;nbsp;indicaCódigo(codigo)" style="text;html=1;align=center;verticalAlign=middle;resizable=0;points=[];autosize=1;strokeColor=none;fillColor=none;" vertex="1" parent="1">
                    <mxGeometry x="40" y="1420" width="150" height="20" as="geometry"/>
                </mxCell>
                <mxCell id="118" value="" style="endArrow=none;html=1;" edge="1" parent="1" target="119">
                    <mxGeometry width="50" height="50" relative="1" as="geometry">
                        <mxPoint x="40" y="1450" as="sourcePoint"/>
                        <mxPoint x="210" y="1450" as="targetPoint"/>
                    </mxGeometry>
                </mxCell>
                <mxCell id="119" value=": Regista Ajuda&lt;br&gt;Handler" style="rounded=0;whiteSpace=wrap;html=1;" vertex="1" parent="1">
                    <mxGeometry x="200" y="1420" width="120" height="60" as="geometry"/>
                </mxCell>
                <mxCell id="120" value="" style="endArrow=none;dashed=1;html=1;dashPattern=1 3;strokeWidth=2;" edge="1" parent="1">
                    <mxGeometry width="50" height="50" relative="1" as="geometry">
                        <mxPoint x="100" y="1420" as="sourcePoint"/>
                        <mxPoint x="160" y="1390" as="targetPoint"/>
                    </mxGeometry>
                </mxCell>
                <mxCell id="121" value="" style="endArrow=none;dashed=1;html=1;dashPattern=1 3;strokeWidth=2;entryX=0.5;entryY=0;entryDx=0;entryDy=0;" edge="1" parent="1" target="119">
                    <mxGeometry width="50" height="50" relative="1" as="geometry">
                        <mxPoint x="160" y="1390" as="sourcePoint"/>
                        <mxPoint x="220" y="1360" as="targetPoint"/>
                    </mxGeometry>
                </mxCell>
                <mxCell id="122" value="Controller" style="text;html=1;align=center;verticalAlign=middle;resizable=0;points=[];autosize=1;strokeColor=none;fillColor=none;" vertex="1" parent="1">
                    <mxGeometry x="130" y="1370" width="70" height="20" as="geometry"/>
                </mxCell>
                <mxCell id="123" value="" style="endArrow=none;html=1;entryX=0;entryY=0.5;entryDx=0;entryDy=0;" edge="1" parent="1" target="124">
                    <mxGeometry width="50" height="50" relative="1" as="geometry">
                        <mxPoint x="320" y="1449.29" as="sourcePoint"/>
                        <mxPoint x="480" y="1449.29" as="targetPoint"/>
                    </mxGeometry>
                </mxCell>
                <mxCell id="124" value=": MigrantMatcher" style="rounded=0;whiteSpace=wrap;html=1;" vertex="1" parent="1">
                    <mxGeometry x="470" y="1420" width="120" height="60" as="geometry"/>
                </mxCell>
                <mxCell id="125" value="1.&amp;nbsp; sendCode(code)" style="text;html=1;align=center;verticalAlign=middle;resizable=0;points=[];autosize=1;strokeColor=none;fillColor=none;" vertex="1" parent="1">
                    <mxGeometry x="335" y="1430" width="120" height="20" as="geometry"/>
                </mxCell>
                <mxCell id="141" value="" style="endArrow=none;html=1;entryX=0;entryY=0.5;entryDx=0;entryDy=0;" edge="1" parent="1" target="143">
                    <mxGeometry width="50" height="50" relative="1" as="geometry">
                        <mxPoint x="310" y="1150" as="sourcePoint"/>
                        <mxPoint x="490" y="1230" as="targetPoint"/>
                        <Array as="points">
                            <mxPoint x="390" y="1150"/>
                            <mxPoint x="390" y="1230"/>
                        </Array>
                    </mxGeometry>
                </mxCell>
                <mxCell id="142" value="2. cod = receiveCod()" style="text;html=1;align=center;verticalAlign=middle;resizable=0;points=[];autosize=1;strokeColor=none;fillColor=none;" vertex="1" parent="1">
                    <mxGeometry x="395" y="1200" width="130" height="20" as="geometry"/>
                </mxCell>
                <mxCell id="143" value=":Sms" style="rounded=0;whiteSpace=wrap;html=1;" vertex="1" parent="1">
                    <mxGeometry x="525" y="1200" width="120" height="60" as="geometry"/>
                </mxCell>
            </root>
        </mxGraphModel>
    </diagram>
</mxfile>